<mxfile host="app.diagrams.net" agent="Mozilla/5.0 (Windows NT 10.0; Win64; x64) AppleWebKit/537.36 (KHTML, like Gecko) Chrome/131.0.0.0 Safari/537.36 Edg/131.0.0.0" version="26.0.2">
  <diagram name="Page-1" id="DiPLUvCkVV-VcLUcs0Ro">
    <mxGraphModel dx="552" dy="327" grid="1" gridSize="10" guides="1" tooltips="1" connect="1" arrows="1" fold="1" page="1" pageScale="1" pageWidth="850" pageHeight="1100" math="0" shadow="0">
      <root>
        <mxCell id="0" />
        <mxCell id="1" parent="0" />
        <mxCell id="pzfhK_49fmqhHexmld-3-3" value="&lt;br&gt;&lt;br&gt;&lt;br&gt;&lt;br&gt;&lt;br&gt;&lt;br&gt;ZOOM" style="points=[];aspect=fixed;html=1;align=center;shadow=0;dashed=0;fillColor=#182E3E;strokeColor=none;shape=mxgraph.alibaba_cloud.multimediaai;labelBackgroundColor=none;fontColor=#FFFFFF;" vertex="1" parent="1">
          <mxGeometry x="240" y="60.45" width="60" height="59.1" as="geometry" />
        </mxCell>
        <mxCell id="pzfhK_49fmqhHexmld-3-4" value="" style="shadow=0;dashed=0;html=1;strokeColor=none;fillColor=#182E3E;labelPosition=center;verticalLabelPosition=bottom;verticalAlign=top;align=center;outlineConnect=0;shape=mxgraph.veeam.2d.agent;pointerEvents=1;labelBackgroundColor=none;fontColor=#FFFFFF;" vertex="1" parent="1">
          <mxGeometry x="360" y="67.6" width="44.8" height="44.8" as="geometry" />
        </mxCell>
        <mxCell id="pzfhK_49fmqhHexmld-3-31" value="" style="edgeStyle=orthogonalEdgeStyle;rounded=0;orthogonalLoop=1;jettySize=auto;html=1;labelBackgroundColor=none;strokeColor=#23445D;fontColor=default;" edge="1" parent="1" source="pzfhK_49fmqhHexmld-3-5" target="pzfhK_49fmqhHexmld-3-29">
          <mxGeometry relative="1" as="geometry" />
        </mxCell>
        <mxCell id="pzfhK_49fmqhHexmld-3-32" style="edgeStyle=orthogonalEdgeStyle;rounded=0;orthogonalLoop=1;jettySize=auto;html=1;labelBackgroundColor=none;strokeColor=#23445D;fontColor=default;" edge="1" parent="1" source="pzfhK_49fmqhHexmld-3-5" target="pzfhK_49fmqhHexmld-3-28">
          <mxGeometry relative="1" as="geometry" />
        </mxCell>
        <mxCell id="pzfhK_49fmqhHexmld-3-5" value="LLM" style="editableCssRules=.*;html=1;shape=image;verticalLabelPosition=bottom;labelBackgroundColor=none;verticalAlign=top;aspect=fixed;imageAspect=0;image=data:image/svg+xml,PHN2ZyB4bWxucz0iaHR0cDovL3d3dy53My5vcmcvMjAwMC9zdmciIHhtbG5zOnY9Imh0dHBzOi8vdmVjdGEuaW8vbmFubyIgd2lkdGg9IjM4MC41MTE5Nzg1NDYzNTQ0NCIgaGVpZ2h0PSIyNzQuOTI5OTg3NzczNzYyNTUiIHZpZXdCb3g9IjAgMCAxMDAuNjc2OTk0MzIzNzMwNDcgNzIuNzQxOTk2NzY1MTM2NzIiPiYjeGE7PHN0eWxlIHR5cGU9InRleHQvY3NzIj4mI3hhOwkuc3Qwe2ZpbGw6IzQyODVmNDt9JiN4YTs8L3N0eWxlPiYjeGE7CTxwYXRoIGNsYXNzPSJzdDAiIGQ9Ik0zNy41NyA0NC43MjRoMjUuNDc3djUuNDY5SDM3LjU3em0wLTEwLjE0NmgyNS40Nzd2NS40NjlIMzcuNTd6bTAtMTAuMTQ2aDI1LjQ3N3Y1LjQ2OUgzNy41N3ptNTMuNTIgMi4yNzhsOS41ODcgMTMuMTQzLTIzLjc4MiAzMi44ODlIMjkuMDdsLTQuNzQxLTYuNTY4IDQuODExLTYuNTYxaDM4LjEwMXpNOS41ODcgNDYuMDMyTDAgMzIuODg5IDIzLjc4MiAwaDQ3LjgyNWw0Ljc0MSA2LjU2OC00LjgxMSA2LjU2MUgzMy40Mzd6Ii8+JiN4YTs8L3N2Zz4=;fillColor=#182E3E;strokeColor=#FFFFFF;fontColor=#FFFFFF;" vertex="1" parent="1">
          <mxGeometry x="470" y="80" width="40" height="32" as="geometry" />
        </mxCell>
        <mxCell id="pzfhK_49fmqhHexmld-3-28" value="Identified Keyword" style="rounded=0;whiteSpace=wrap;html=1;labelBackgroundColor=none;fillColor=#182E3E;strokeColor=#FFFFFF;fontColor=#FFFFFF;" vertex="1" parent="1">
          <mxGeometry x="350" y="160" width="120" height="60" as="geometry" />
        </mxCell>
        <mxCell id="pzfhK_49fmqhHexmld-3-29" value="Identify Action Items" style="rounded=0;whiteSpace=wrap;html=1;labelBackgroundColor=none;fillColor=#182E3E;strokeColor=#FFFFFF;fontColor=#FFFFFF;" vertex="1" parent="1">
          <mxGeometry x="510" y="160" width="120" height="60" as="geometry" />
        </mxCell>
        <mxCell id="pzfhK_49fmqhHexmld-3-33" value="" style="shape=datastore;whiteSpace=wrap;html=1;labelBackgroundColor=none;fillColor=#182E3E;strokeColor=#FFFFFF;fontColor=#FFFFFF;" vertex="1" parent="1">
          <mxGeometry x="540" y="260" width="60" height="60" as="geometry" />
        </mxCell>
        <mxCell id="pzfhK_49fmqhHexmld-3-34" value="Scrum Updates" style="sketch=0;pointerEvents=1;shadow=0;dashed=0;html=1;strokeColor=none;fillColor=#182E3E;labelPosition=center;verticalLabelPosition=bottom;verticalAlign=top;outlineConnect=0;align=center;shape=mxgraph.office.sites.site_team;labelBackgroundColor=none;fontColor=#FFFFFF;" vertex="1" parent="1">
          <mxGeometry x="110" y="71.5" width="60" height="49" as="geometry" />
        </mxCell>
      </root>
    </mxGraphModel>
  </diagram>
</mxfile>
